<svg id="Layer_1" data-name="Layer 1" xmlns="http://www.w3.org/2000/svg" viewBox="0 0 1920 1080"><defs><style>.cls-1{fill:#e2e2e2;}.cls-2{fill:#232323;}.cls-3{fill:#0086f4;}</style></defs><rect class="cls-1" width="1920" height="1080"/><rect class="cls-2" x="30" y="30" width="1860" height="1020"/><path class="cls-3" d="M422.11816,170.38965H380.66553V155.42578H481.56787v14.96387H439.91309V291.71484H422.11816Z"/><path class="cls-3" d="M567.30566,227.81641h-52.979v49.13671h59.04541v14.76172H496.73438V155.42578h73.60449V170.1875H514.32666v43.07031h52.979Z"/><path class="cls-3" d="M593.79492,270.28027a62.337,62.337,0,0,0,31.54492,8.89746c17.99659,0,28.51123-9.5039,28.51123-23.2539,0-12.73926-7.27929-20.01856-25.68066-27.09571-22.24268-7.88671-35.99316-19.4121-35.99316-38.62207,0-21.23242,17.59228-37.00488,44.08154-37.00488,13.95264,0,24.063,3.23535,30.12939,6.67285l-4.853,14.35743a54.27746,54.27746,0,0,0-25.88282-6.47071c-18.60351,0-25.68066,11.1211-25.68066,20.42285,0,12.73926,8.29053,19.00782,27.09619,26.28711,23.05176,8.89746,34.77979,20.01856,34.77979,40.03711,0,21.03028-15.56983,39.22949-47.7212,39.22949-13.14355,0-27.50048-3.84277-34.78027-8.69531Z"/><path class="cls-3" d="M721.79492,170.38965H680.34229V155.42578H781.24463v14.96387H739.58984V291.71484H721.79492Z"/><path class="cls-3" d="M839.27832,157.24609c8.89746-1.82031,21.63672-2.83105,33.769-2.83105,18.80567,0,30.938,3.4375,39.43116,11.12109,6.875,6.06641,10.71679,15.36817,10.71679,25.88282,0,17.99707-11.32373,29.92675-25.68066,34.78027v.60644c10.51514,3.63965,16.78369,13.34571,20.019,27.5,4.44873,19.00782,7.68408,32.15137,10.51465,37.40918H909.84961c-2.22412-3.84179-5.25732-15.57031-9.09961-32.55566-4.04395-18.80566-11.32324-25.88281-27.29785-26.48926H856.87061v59.04492H839.27832Zm17.59229,62.07813h17.99658c18.80566,0,30.73633-10.3125,30.73633-25.88281,0-17.59278-12.73926-25.27637-31.34278-25.47852-8.49267,0-14.55908.80859-17.39013,1.61719Z"/><path class="cls-3" d="M1018.63965,227.81641H965.66113v49.13671h59.04492v14.76172H948.06836V155.42578h73.60449V170.1875H965.66113v43.07031h52.97852Z"/><path class="cls-3" d="M1045.12891,270.28027a62.33554,62.33554,0,0,0,31.54492,8.89746c17.99609,0,28.51172-9.5039,28.51172-23.2539,0-12.73926-7.28028-20.01856-25.68067-27.09571-22.24316-7.88671-35.99316-19.4121-35.99316-38.62207,0-21.23242,17.5918-37.00488,44.08105-37.00488,13.95215,0,24.06348,3.23535,30.12891,6.67285l-4.85254,14.35743a54.27567,54.27567,0,0,0-25.88281-6.47071c-18.60352,0-25.68067,11.1211-25.68067,20.42285,0,12.73926,8.291,19.00782,27.09571,26.28711,23.05175,8.89746,34.78027,20.01856,34.78027,40.03711,0,21.03028-15.57031,39.22949-47.72168,39.22949-13.14355,0-27.5-3.84277-34.7793-8.69531Z"/><path class="cls-3" d="M1164.83887,155.42578v80.68164c0,30.5332,13.54785,43.47461,31.74707,43.47461,20.2207,0,33.16211-13.3457,33.16211-43.47461V155.42578H1247.543v79.46777c0,41.85743-22.041,59.0459-51.56348,59.0459-27.90527,0-48.93457-15.97461-48.93457-58.23633V155.42578Z"/><path class="cls-3" d="M1278.07617,155.42578h17.5918V276.95312h58.23633v14.76172h-75.82813Z"/><path class="cls-3" d="M1381.60645,170.38965h-41.45313V155.42578h100.90234v14.96387h-41.65527V291.71484h-17.79394Z"/><path class="cls-3" d="M1452.584,270.28027a62.33557,62.33557,0,0,0,31.54493,8.89746c17.99609,0,28.51171-9.5039,28.51171-23.2539,0-12.73926-7.28027-20.01856-25.68066-27.09571-22.24316-7.88671-35.99316-19.4121-35.99316-38.62207,0-21.23242,17.59179-37.00488,44.08105-37.00488,13.95215,0,24.06348,3.23535,30.12891,6.67285l-4.85254,14.35743a54.27567,54.27567,0,0,0-25.88281-6.47071c-18.60352,0-25.68067,11.1211-25.68067,20.42285,0,12.73926,8.291,19.00782,27.09571,26.28711,23.05175,8.89746,34.78027,20.01856,34.78027,40.03711,0,21.03028-15.57031,39.22949-47.72168,39.22949-13.14356,0-27.5-3.84277-34.7793-8.69531Z"/><rect class="cls-3" x="532.06452" y="491.96774" width="74.32258" height="425.03226"/><rect class="cls-3" x="645.87097" y="624.35484" width="74.32258" height="292.64516"/><rect class="cls-3" x="868.83871" y="575.58065" width="74.32258" height="341.41935"/><rect class="cls-3" x="759.67742" y="413" width="74.32258" height="504"/><rect class="cls-3" x="976.83871" y="680.00045" width="74.32258" height="236.99955"/><rect class="cls-3" x="1090.64516" y="753.81998" width="74.32258" height="163.18002"/><rect class="cls-3" x="1313.6129" y="726.62331" width="74.32258" height="190.37669"/><rect class="cls-3" x="1204.45161" y="635.96774" width="74.32258" height="281.03226"/><rect class="cls-3" x="440.80645" y="921" width="1033.54839" height="11.6129"/></svg>