<svg id="Layer_1" data-name="Layer 1" xmlns="http://www.w3.org/2000/svg" viewBox="0 0 1080 1080"><defs><style>.cls-1{fill:#39afff;}</style></defs><path class="cls-1" d="M659.1983,484.84717a137.82519,137.82519,0,0,0-51.79708,10.13711A112.5945,112.5945,0,0,0,561.37879,452.716a129.32932,129.32932,0,0,0-28.69152-115.542q-4.22616-4.79241-8.90667-9.16538a129.23895,129.23895,0,0,0-216.50757,79.412,176.09486,176.09486,0,0,0-5.29227,350.98849c1.39822.13283,2.79644.25167,4.19466.34255V744.72756q-2.10783-.15728-4.19466-.37751a162.10473,162.10473,0,0,1,16.91148-323.32471c.50339,0,1.00673.014,1.51011.021a115.278,115.278,0,1,1,224.065,39.65353A98.17361,98.17361,0,0,1,601.2421,513.301a123.204,123.204,0,1,1,57.9562,231.923H560.82647v13.98221H659.1983a136.78721,136.78721,0,0,0,96.77792-40.03808,139.41327,139.41327,0,0,0,11.32565-12.77972,136.49383,136.49383,0,0,0,29.0759-84.36171C796.37777,546.3829,734.84212,484.84717,659.1983,484.84717Z"/><path class="cls-1" d="M811.80019,468.38313a125.85939,125.85939,0,0,0-47.34375,9.27017A102.90394,102.90394,0,0,0,722.384,439.01348a118.16766,118.16766,0,0,0-197.96028-111.648c-.21668.21673-.43336.42645-.64313.64317a118.08139,118.08139,0,0,0-9.24922,10.42377,114.15677,114.15677,0,0,1,8.92766,9.36805A105.39724,105.39724,0,0,1,706.9266,446.3122a89.7457,89.7457,0,0,1,51.895,48.07781,112.61766,112.61766,0,1,1,52.97863,211.99834H748.97812A123.14256,123.14256,0,0,1,734.975,719.16807h76.82519a125.39247,125.39247,0,1,0,0-250.78494Z"/><path class="cls-1" d="M301.97785,489.06505V552.9322h263.046V489.06505Zm258.851,59.67232H306.17235V493.2598H560.82886Z"/><path class="cls-1" d="M301.97785,567.00462v63.86715h263.046V567.00462Zm258.851,59.67266H306.17235V571.199H560.82886Z"/><path class="cls-1" d="M301.97785,644.94419V708.8113h263.046V644.94419Zm258.851,59.67232H306.17235V649.13894H560.82886Z"/><path class="cls-1" d="M301.98076,722.88035v63.87074H565.02113V722.88035Zm258.84571,59.67607h-254.651V727.075H560.82647Z"/></svg>