<svg id="Layer_1" data-name="Layer 1" xmlns="http://www.w3.org/2000/svg" viewBox="0 0 1080 1080"><defs><style>.cls-1{fill:#39afff;}</style></defs><path class="cls-1" d="M173.03226,251.629V697.56452H906.96774V251.629ZM886.96774,677.56446H193.0322V271.62891H886.96774Z"/><path class="cls-1" d="M635.36,368.48679a61.00148,61.00148,0,0,1-52.21-17.18l-31.32-31.32a16.71842,16.71842,0,0,0-23.66,0l-31.32,31.32a61.00148,61.00148,0,0,1-52.21,17.18,34.02533,34.02533,0,0,0-5.09-.38,33.59766,33.59766,0,0,0-33,39.29l15.28,88.68c.04.23.07995.45.12.68.55,3.13,1.18,6.22,1.9,9.29.47,2.04.97,4.06,1.52,6.06994q1.26,4.695,2.77,9.29c.67,2.04,1.37,4.06,2.12,6.06q1.74,4.71,3.74,9.29,1.32,3.075,2.78,6.07c1.5,3.15,3.11,6.25,4.79,9.29a177.655,177.655,0,0,0,36.8,46.06q5.43,4.875,11.27,9.29,4.17,3.165,8.53,6.07a176.336,176.336,0,0,0,15.58,9.29q6.165,3.27,12.63,6.06,6.66,2.88,13.62,5.23,6.96-2.34,13.62-5.23,6.465-2.79,12.63-6.06c.3-.15.6-.31.89-.47a177.72724,177.72724,0,0,0,71.28992-70.24c1.68006-3.04,3.29-6.13995,4.79-9.29q1.455-3,2.78-6.07,2.01013-4.575,3.74-9.29c.75-2,1.44995-4.02,2.12-6.06q1.515-4.59,2.77-9.29c.54993-2.00995,1.04993-4.03,1.52-6.06994.72-3.07,1.35-6.16,1.9-9.29.04-.23.07995-.45.11987-.68l15.28-88.68A33.5885,33.5885,0,0,0,635.36,368.48679Zm32.35,37.92-15.28,88.68c-.09985.56-.18994,1.11-.29993,1.67-.56994,3.13-1.22009,6.22-1.96008,9.29-.48,2.04-1.01,4.06-1.56994,6.06994q-1.305,4.695-2.88,9.29-1.03491,3.06-2.18994,6.06-1.79993,4.71-3.88,9.29-1.38006,3.075-2.89,6.07c-1.57007,3.16-3.25,6.25-5.01,9.29a171.41513,171.41513,0,0,1-64.61,63.61005q-6.9,3.86994-14.2,7.1-6.33,2.82-12.94,5.13-6.615-2.31-12.94-5.13a169.67263,169.67263,0,0,1-17.99-9.29c-3.24-1.92005-6.42-3.94-9.51-6.07q-6.375-4.365-12.31-9.29a171.27871,171.27871,0,0,1-39-46.06c-1.76-3.04-3.44-6.12994-5.01-9.29q-1.515-3-2.89-6.07-2.08494-4.575-3.88-9.29-1.15494-3-2.18994-6.06-1.57507-4.59-2.88-9.29c-.56-2.00995-1.09-4.03-1.57-6.06994-.74-3.07-1.39-6.16-1.96-9.29-.11-.56-.2-1.11-.3-1.67l-15.28-88.68a27.76656,27.76656,0,0,1,27.24-32.48,28.825,28.825,0,0,1,4.24.32,66.71556,66.71556,0,0,0,57.19-18.83l31.32-31.32a10.93637,10.93637,0,0,1,15.43994,0l31.32,31.32a66.71556,66.71556,0,0,0,57.19,18.83,28.82566,28.82566,0,0,1,4.24-.32,27.76647,27.76647,0,0,1,27.24,32.48Z"/><rect class="cls-1" x="230.03226" y="399.98387" width="92.90323" height="9.29032"/><rect class="cls-1" x="230.03226" y="415.33871" width="108.3871" height="9.29032"/><rect class="cls-1" x="230.03226" y="430.69355" width="158.70968" height="9.29032"/><rect class="cls-1" x="230.03226" y="446.04839" width="115.87097" height="9.29032"/><path class="cls-1" d="M429.83,506.04679H230.03v-9.29H427.87C428.44,499.88675,429.09,502.97678,429.83,506.04679Z"/><path class="cls-1" d="M693.34009,496.75675v9.29H650.16992c.74-3.07,1.39014-6.16,1.96008-9.29Z"/><path class="cls-1" d="M434.28,521.40677H230.03v-9.29H431.4Q432.705,516.81175,434.28,521.40677Z"/><path class="cls-1" d="M770.56006,512.11673v9.29H645.72q1.57508-4.59,2.88-9.29Z"/><path class="cls-1" d="M440.35,536.75675H230.03v-9.29H436.47Q438.27,532.17678,440.35,536.75675Z"/><path class="cls-1" d="M830.03,527.46677v9.29H639.65q2.085-4.575,3.88-9.29Z"/><path class="cls-1" d="M448.25,552.11673H230.03v-9.29H443.24C444.81,545.98679,446.49,549.07676,448.25,552.11673Z"/><path class="cls-1" d="M807.88,542.82676v9.29H631.75c1.76-3.04,3.43994-6.12994,5.01-9.29Z"/><path class="cls-1" d="M499.56,607.46677H230.03v-9.29H487.25Q493.175,603.09678,499.56,607.46677Z"/><path class="cls-1" d="M509.07,613.53678a169.67263,169.67263,0,0,0,17.99,9.29H230.03v-9.29Z"/><path class="cls-1" d="M567.14,615.72678v6.63c-.29.16-.59.32-.89.47H552.94Q560.245,619.60172,567.14,615.72678Z"/><rect class="cls-1" x="230.03226" y="628.8871" width="374.19355" height="9.29032"/><rect class="cls-1" x="230.03226" y="644.24194" width="360.38056" height="9.29032"/><rect class="cls-1" x="481.1925" y="690.17742" width="117.61395" height="111.48387"/><rect class="cls-1" x="371.85894" y="801.66129" width="336.28108" height="26.70968"/></svg>