<svg id="Layer_1" data-name="Layer 1" xmlns="http://www.w3.org/2000/svg" viewBox="0 0 460 460"><defs><style>.cls-1{fill:#ddd;}.cls-2{fill:#aaa;}.cls-3{fill:#191919;}.cls-4{fill:#0086ff;}</style></defs><path class="cls-1" d="M904.05,613.72a198.13144,198.13144,0,0,0-52.1,0,91.5,91.5,0,1,1,52.1,0Z" transform="translate(-648 -296)"/><path class="cls-2" d="M904.05,613.72a198.13144,198.13144,0,0,0-52.1,0,91.5,91.5,0,1,1,52.1,0Z" transform="translate(-648 -296)"/><path class="cls-3" d="M904.05,613.72a198.13144,198.13144,0,0,0-52.1,0,91.5,91.5,0,1,1,52.1,0Z" transform="translate(-648 -296)"/><path class="cls-3" d="M1108,296V756h-40.21A197.34761,197.34761,0,0,0,922.77,617.11a101.5,101.5,0,1,0-89.54,0A197.34753,197.34753,0,0,0,688.21,756H648V296Z" transform="translate(-648 -296)"/><path class="cls-4" d="M922.77,617.11a101.5,101.5,0,1,0-89.54,0A197.34753,197.34753,0,0,0,688.21,756h379.58A197.34761,197.34761,0,0,0,922.77,617.11ZM878,612a198.22325,198.22325,0,0,0-26.05,1.72,91.5,91.5,0,1,1,52.1,0A198.22325,198.22325,0,0,0,878,612Z" transform="translate(-648 -296)"/><path class="cls-4" d="M867.43066,559.63086l-.3916-5.08984c-1.17431-10.57129,2.34961-22.12256,12.1377-33.86866,8.81006-10.376,13.7041-18.01074,13.7041-26.82031,0-9.98437-6.26465-16.64062-18.59815-16.83643-7.04785,0-14.87841,2.34961-19.77294,6.06885L849.81152,470.751c6.46045-4.69825,17.61914-7.83057,27.99512-7.83057,22.51367,0,32.69336,13.89941,32.69336,28.77832,0,13.3125-7.439,22.90527-16.83594,34.06348-8.61377,10.18066-11.74609,18.79443-11.15918,28.77881l.1958,5.08984Zm-4.30664,27.4082c0-7.24316,4.894-12.333,11.7461-12.333s11.55029,5.08985,11.55029,12.333c0,6.85156-4.50244,12.1377-11.74609,12.1377C867.82227,599.17676,863.124,593.89062,863.124,587.03906Z" transform="translate(-648 -296)"/></svg>